<svg aria-hidden="true" style="position: absolute; width: 0; height: 0; overflow: hidden;" version="1.1" xmlns="http://www.w3.org/2000/svg" xmlns:xlink="http://www.w3.org/1999/xlink">
<defs>
<symbol id="icon-fatsquare" viewBox="0 0 24 24">
<title>fatsquare</title>
<path d="M12.843 3.504c-0.119 0.072-0.197 0.206-0.25 0.437l-0.048 0.206v7.86c0 6.569 0.005 7.889 0.032 8.019 0.037 0.187 0.14 0.394 0.227 0.461 0.046 0.038 1.671 0.053 5.353 0.053 4.389 0 5.3-0.010 5.362-0.067 0.098-0.082 0.218-0.374 0.234-0.567 0.007-0.086 0.009-3.692 0.007-8.014l-0.007-7.851-0.062-0.197c-0.032-0.106-0.098-0.23-0.149-0.283-0.085-0.091-0.224-0.091-5.353-0.101-3.448-0.005-5.294 0.009-5.346 0.043zM18.521 11.249v5.882h3.801v-5.142l0.721 0.029 0.007 3.328 0.005 3.323h-5.266v-11.812h-3.801v5.137h-0.733v-6.626h5.266v5.882z"></path>
<path d="M0.455 3.509h10.664v3.291h-6.713v3.144h6.312v3.291h-6.312v7.158h-3.952v-16.884z"></path>
</symbol>
<symbol id="icon-home" viewBox="0 0 24 24">
<title>home</title>
<path d="M9.984 20.016h-4.969v-8.016h-3l9.984-9 9.984 9h-3v8.016h-4.969v-6h-4.031v6z"></path>
</symbol>
<symbol id="icon-controller-record" viewBox="0 0 24 24">
<title>controller-record</title>
<path d="M12 3.6c-4.639 0-8.4 3.76-8.4 8.4 0 4.638 3.761 8.4 8.4 8.4s8.4-3.762 8.4-8.4c0-4.64-3.761-8.4-8.4-8.4z"></path>
</symbol>
<symbol id="icon-speaker" viewBox="0 0 24 24">
<title>Mute</title>


<path d="M18 10.308l-2.544-2.556-1.704 1.704 2.568 2.544-2.556 2.544 1.704 1.704 2.532-2.568 2.544 2.556 1.704-1.704-2.568-2.532 2.556-2.544-1.704-1.704-2.532 2.568zM4.8 8.4h-4.8v7.2h4.8l6 6v-19.2l-6 6z"></path>
</symbol>
<symbol id="icon-fatsine" viewBox="0 0 24 24">
<title>fatsine</title>
<path d="M13.194 3.504c-0.114 0.072-0.188 0.206-0.238 0.437l-0.046 0.206v7.86c0 6.569 0.004 7.889 0.031 8.019 0.035 0.187 0.133 0.394 0.216 0.461 0.044 0.038 1.596 0.053 5.11 0.053 4.19 0 5.060-0.010 5.119-0.067 0.094-0.082 0.208-0.374 0.223-0.567 0.007-0.086 0.009-3.692 0.007-8.014l-0.007-7.851-0.059-0.197c-0.031-0.106-0.094-0.23-0.142-0.283-0.081-0.091-0.214-0.091-5.11-0.101-3.292-0.005-5.054 0.009-5.104 0.043zM16.418 5.439c0.848 0.394 1.65 2.713 2.142 6.199 0.273 1.935 0.564 3.256 0.946 4.297 0.17 0.466 0.345 0.783 0.551 0.999 0.153 0.163 0.177 0.173 0.374 0.173s0.216-0.010 0.382-0.187c0.341-0.37 0.708-1.33 1.008-2.641 0.135-0.6 0.313-1.517 0.389-2.036l0.037-0.25h0.337c0.306 0 0.337 0.010 0.337 0.082 0 0.149-0.214 1.474-0.341 2.113-0.487 2.463-1.11 3.975-1.801 4.369-0.173 0.096-0.509 0.106-0.678 0.019-0.175-0.091-0.463-0.399-0.632-0.672-0.608-0.994-1.172-3.102-1.523-5.695-0.251-1.858-0.673-3.611-1.078-4.494-0.389-0.85-0.767-1.037-1.178-0.591-0.47 0.509-0.979 2.199-1.34 4.461l-0.061 0.384-0.341 0.014c-0.293 0.010-0.339 0-0.339-0.062 0-0.038 0.039-0.336 0.090-0.663 0.372-2.439 0.929-4.379 1.515-5.262 0.146-0.226 0.411-0.485 0.568-0.557 0.179-0.086 0.45-0.086 0.636 0z"></path>
<path d="M0.632 3.354h10.664v3.35h-6.713v3.201h6.312v3.35h-6.312v7.288h-3.952v-17.189z"></path>
</symbol>
<symbol id="icon-pwm" viewBox="0 0 24 24">
<title>pwm</title>
<path d="M1.134 3.618c-0.449 0-0.81 0.344-0.81 0.77v15.425c0 0.427 0.361 0.77 0.81 0.77h21.886c0.449 0 0.81-0.344 0.81-0.77v-15.425c0-0.427-0.361-0.77-0.81-0.77h-21.886zM1.471 9.043h2.714c0.807 0 1.426 0.18 1.856 0.54 0.433 0.357 0.65 0.867 0.65 1.529 0 0.666-0.217 1.178-0.65 1.538-0.43 0.357-1.049 0.535-1.856 0.535h-1.079v2.2h-1.635v-6.342zM6.383 9.043h1.567l1.096 4.609 1.087-4.609h1.576l1.088 4.609 1.096-4.609h1.555l-1.495 6.342h-1.886l-1.151-4.822-1.138 4.822h-1.886l-1.508-6.342zM15.602 9.043h2.082l1.444 3.394 1.453-3.394h2.077v6.342h-1.546v-4.639l-1.461 3.42h-1.037l-1.461-3.42v4.639h-1.551v-6.342zM3.106 10.228v1.771h0.905c0.317 0 0.562-0.076 0.735-0.229 0.173-0.156 0.259-0.375 0.259-0.658s-0.086-0.501-0.259-0.654c-0.173-0.153-0.418-0.229-0.735-0.229h-0.905z"></path>
</symbol>
<symbol id="icon-sawtooth" viewBox="0 0 24 24">
<title>sawtooth</title>
<path d="M0.864 3.504c-0.25 0.072-0.413 0.206-0.523 0.437l-0.101 0.206v7.86c0 6.569 0.010 7.889 0.067 8.019 0.077 0.187 0.293 0.394 0.475 0.461 0.096 0.038 3.505 0.053 11.226 0.053 9.205 0 11.116-0.010 11.245-0.067 0.206-0.082 0.456-0.374 0.49-0.567 0.014-0.086 0.019-3.692 0.014-8.014l-0.014-7.851-0.13-0.197c-0.067-0.106-0.206-0.23-0.312-0.283-0.178-0.091-0.471-0.091-11.226-0.101-7.232-0.005-11.102 0.009-11.212 0.043zM9.565 10.442l0.014 5.080 2.444-5.080 2.444-5.075h1.522l0.005 5.099v5.104l0.192-0.384c0.106-0.211 1.172-2.502 2.367-5.090l2.175-4.705 0.749-0.014c0.418-0.005 0.754 0.005 0.754 0.024 0 0.024-1.402 3.011-3.116 6.641l-3.116 6.602h-1.522l-0.024-5.080-0.024-5.075-4.898 10.179h-1.512l-0.010-5.114-0.014-5.118-4.725 10.208-0.754 0.014c-0.701 0.010-0.749 0.005-0.725-0.072 0.019-0.082 5.992-12.763 6.156-13.075l0.077-0.144h1.532l0.010 5.075z"></path>
</symbol>
<symbol id="icon-pulse" viewBox="0 0 24 24">
<title>pulse</title>
<path d="M1.444 3.047c-0.405 0.154-0.841 0.571-1.050 1.001l-0.154 0.307v15.291l0.135 0.289c0.197 0.424 0.663 0.866 1.081 1.026l0.356 0.129h10.188c10.163 0 10.188 0 10.532-0.129 0.411-0.154 0.866-0.577 1.075-1.007l0.154-0.307v-15.291l-0.135-0.289c-0.197-0.424-0.663-0.866-1.081-1.026l-0.356-0.129-10.206 0.006c-10.201-0-10.207-0-10.538 0.129zM21.334 12v6.632h-18.669v-5.65h2.137c1.277 0 2.223-0.024 2.358-0.061 0.424-0.123 0.571-0.307 0.909-1.185 0.178-0.448 0.325-0.817 0.338-0.829s0.442 1.247 0.952 2.794c0.516 1.548 0.989 2.886 1.050 2.972 0.356 0.504 1.253 0.467 1.578-0.061 0.061-0.104 0.608-1.363 1.21-2.8l1.099-2.61 0.356 0.688c0.19 0.381 0.424 0.755 0.51 0.829 0.264 0.227 0.583 0.276 1.744 0.252 1.21-0.018 1.375-0.067 1.646-0.479 0.264-0.387 0.141-1.026-0.252-1.308-0.166-0.117-0.288-0.141-1.050-0.166l-0.86-0.031-0.688-1.351c-0.424-0.829-0.755-1.412-0.872-1.517-0.35-0.313-0.915-0.301-1.265 0.031-0.172 0.16-0.393 0.633-1.198 2.555-0.54 1.296-1.007 2.395-1.038 2.45-0.037 0.061-0.356-0.823-1.013-2.8-0.94-2.813-0.97-2.898-1.21-3.107-0.233-0.215-0.368-0.258-0.762-0.227-0.227 0.018-0.589 0.246-0.694 0.442-0.043 0.080-0.375 0.909-0.737 1.836l-0.663 1.689-1.793 0.018-1.793 0.012v-5.65h18.669v6.632z"></path>
</symbol>
<symbol id="icon-square" viewBox="0 0 24 24">
<title>square</title>
<path d="M0.864 3.504c-0.25 0.072-0.413 0.206-0.523 0.437l-0.101 0.206v7.86c0 6.569 0.010 7.889 0.067 8.019 0.077 0.187 0.293 0.394 0.475 0.461 0.096 0.038 3.505 0.053 11.226 0.053 9.205 0 11.116-0.010 11.245-0.067 0.206-0.082 0.456-0.374 0.49-0.567 0.014-0.086 0.019-3.692 0.014-8.014l-0.014-7.851-0.13-0.197c-0.067-0.106-0.206-0.23-0.312-0.283-0.178-0.091-0.471-0.091-11.226-0.101-7.232-0.005-11.102 0.009-11.212 0.043zM12.772 11.249v5.882h7.971v-5.142l1.512 0.029 0.014 3.328 0.010 3.323h-11.044v-11.812h-7.971v5.137h-1.536v-6.626h11.044v5.882z"></path>
</symbol>
<symbol id="icon-sine" viewBox="0 0 24 24">
<title>sinus</title>
<path d="M0.864 3.504c-0.25 0.072-0.413 0.206-0.523 0.437l-0.101 0.206v7.86c0 6.569 0.010 7.889 0.067 8.019 0.077 0.187 0.293 0.394 0.475 0.461 0.096 0.038 3.505 0.053 11.226 0.053 9.205 0 11.116-0.010 11.245-0.067 0.206-0.082 0.456-0.374 0.49-0.567 0.014-0.086 0.019-3.692 0.014-8.014l-0.014-7.851-0.13-0.197c-0.067-0.106-0.206-0.23-0.312-0.283-0.178-0.091-0.471-0.091-11.226-0.101-7.232-0.005-11.102 0.009-11.212 0.043zM7.947 5.439c1.863 0.394 3.625 2.713 4.706 6.199 0.6 1.935 1.239 3.256 2.079 4.297 0.374 0.466 0.759 0.783 1.21 0.999 0.336 0.163 0.389 0.173 0.821 0.173s0.475-0.010 0.84-0.187c0.749-0.37 1.556-1.33 2.214-2.641 0.298-0.6 0.687-1.517 0.855-2.036l0.082-0.25h0.739c0.672 0 0.739 0.010 0.739 0.082 0 0.149-0.471 1.474-0.749 2.113-1.071 2.463-2.439 3.975-3.957 4.369-0.379 0.096-1.119 0.106-1.488 0.019-0.384-0.091-1.018-0.399-1.388-0.672-1.335-0.994-2.574-3.102-3.347-5.695-0.552-1.858-1.479-3.611-2.367-4.494-0.855-0.85-1.685-1.037-2.588-0.591-1.032 0.509-2.151 2.199-2.943 4.461l-0.134 0.384-0.749 0.014c-0.643 0.010-0.744 0-0.744-0.062 0-0.038 0.086-0.336 0.197-0.663 0.816-2.439 2.041-4.379 3.328-5.262 0.322-0.226 0.903-0.485 1.248-0.557 0.394-0.086 0.989-0.086 1.397 0z"></path>
</symbol>
<symbol id="icon-triangle" viewBox="0 0 24 24">
<title>triangle</title>
<path d="M0.864 3.504c-0.25 0.072-0.413 0.206-0.523 0.437l-0.101 0.206v7.86c0 6.569 0.010 7.889 0.067 8.019 0.077 0.187 0.293 0.394 0.475 0.461 0.096 0.038 3.505 0.053 11.226 0.053 9.205 0 11.116-0.010 11.245-0.067 0.206-0.082 0.456-0.374 0.49-0.567 0.014-0.086 0.019-3.692 0.014-8.014l-0.014-7.851-0.13-0.197c-0.067-0.106-0.206-0.23-0.312-0.283-0.178-0.091-0.471-0.091-11.226-0.101-7.232-0.005-11.102 0.009-11.212 0.043zM12.004 10.961c2.593 3.064 4.73 5.575 4.749 5.58 0.014 0.005 0.922-1.018 2.017-2.271l1.983-2.276h0.744c0.408 0 0.735 0.019 0.725 0.043-0.024 0.072-5.436 6.583-5.469 6.583-0.014 0-2.156-2.507-4.749-5.57-2.598-3.063-4.734-5.57-4.754-5.57-0.014 0-0.917 1.013-1.998 2.257l-1.964 2.252-0.763 0.005h-0.763l0.115-0.144c0.466-0.595 5.354-6.473 5.378-6.468 0.014 0.005 2.151 2.516 4.749 5.579z"></path>
</symbol>
<symbol id="icon-media" viewBox="0 0 24 24">
<title>Pianoroll</title>
<path d="M10.154 0.923h-3.231v12.923h-1.384v9.231h6v-9.231h-1.385z"></path>
<path d="M17.077 0.923h-3.231v12.923h-1.384v9.231h6v-9.231h-1.385z"></path>
<path d="M3.231 0.923h-2.308v22.154h3.693v-9.231h-1.385z"></path>
<path d="M20.769 0.923v12.923h-1.384v9.231h3.692v-22.154z"></path>
</symbol>
<symbol id="icon-plus" viewBox="0 0 24 24">
<title>plus</title>
<path d="M19.2 12c0 0.664-0.058 1.2-0.721 1.2h-5.279v5.279c0 0.662-0.536 0.721-1.2 0.721s-1.2-0.059-1.2-0.721v-5.279h-5.279c-0.662 0-0.721-0.536-0.721-1.2s0.059-1.2 0.721-1.2h5.279v-5.279c0-0.664 0.536-0.721 1.2-0.721s1.2 0.058 1.2 0.721v5.279h5.279c0.664 0 0.721 0.536 0.721 1.2z"></path>
</symbol>
<symbol id="icon-controller-stop" viewBox="0 0 24 24">
<title>controller-stop</title>
<path d="M19.2 5.994v11.77c0 0.793-0.643 1.436-1.435 1.436h-11.768c-0.661 0-1.196-0.535-1.196-1.196v-11.768c0-0.792 0.643-1.435 1.435-1.435h11.77c0.66 0 1.195 0.535 1.195 1.194z"></path>
</symbol>
<symbol id="icon-controller-play" viewBox="0 0 24 24">
<title>controller-play</title>
<path d="M18 12.001c0 0.359-0.366 0.617-0.366 0.617l-10.273 6.364c-0.749 0.491-1.361 0.127-1.361-0.803v-12.356c0-0.932 0.612-1.294 1.362-0.804l10.273 6.366c-0.001 0 0.365 0.258 0.365 0.617z"></path>
</symbol>
<symbol id="icon-settings" viewBox="0 0 24 24">
<title>Synth Controls</title>
<path d="M12 15.516c1.922 0 3.516-1.594 3.516-3.516s-1.594-3.516-3.516-3.516-3.516 1.594-3.516 3.516 1.594 3.516 3.516 3.516zM19.453 12.984l2.109 1.641c0.188 0.141 0.234 0.422 0.094 0.656l-2.016 3.469c-0.141 0.234-0.375 0.281-0.609 0.188l-2.484-0.984c-0.516 0.375-1.078 0.75-1.688 0.984l-0.375 2.625c-0.047 0.234-0.234 0.422-0.469 0.422h-4.031c-0.234 0-0.422-0.188-0.469-0.422l-0.375-2.625c-0.609-0.234-1.172-0.563-1.688-0.984l-2.484 0.984c-0.234 0.094-0.469 0.047-0.609-0.188l-2.016-3.469c-0.141-0.234-0.094-0.516 0.094-0.656l2.109-1.641c-0.047-0.328-0.047-0.656-0.047-0.984s0-0.656 0.047-0.984l-2.109-1.641c-0.188-0.141-0.234-0.422-0.094-0.656l2.016-3.469c0.141-0.234 0.375-0.281 0.609-0.188l2.484 0.984c0.516-0.375 1.078-0.75 1.688-0.984l0.375-2.625c0.047-0.234 0.234-0.422 0.469-0.422h4.031c0.234 0 0.422 0.188 0.469 0.422l0.375 2.625c0.609 0.234 1.172 0.563 1.688 0.984l2.484-0.984c0.234-0.094 0.469-0.047 0.609 0.188l2.016 3.469c0.141 0.234 0.094 0.516-0.094 0.656l-2.109 1.641c0.047 0.328 0.047 0.656 0.047 0.984s0 0.656-0.047 0.984z"></path>
</symbol>
<symbol id="icon-close" viewBox="0 0 24 24">
<title>Remove Synth</title>
<path d="M18.984 6.422l-5.578 5.578 5.578 5.578-1.406 1.406-5.578-5.578-5.578 5.578-1.406-1.406 5.578-5.578-5.578-5.578 1.406-1.406 5.578 5.578 5.578-5.578z"></path>
</symbol>
<symbol id="icon-file-music" viewBox="0 0 24 24">
<title>file-music</title>
<path d="M21.511 5.369c-0.521-0.71-1.246-1.54-2.043-2.337s-1.627-1.523-2.337-2.043c-1.209-0.886-1.795-0.989-2.131-0.989h-11.625c-1.034 0-1.875 0.841-1.875 1.875v20.25c0 1.034 0.841 1.875 1.875 1.875h17.25c1.034 0 1.875-0.841 1.875-1.875v-14.625c0-0.336-0.102-0.922-0.989-2.131v0zM18.407 4.093c0.72 0.72 1.284 1.369 1.701 1.907h-3.608v-3.608c0.539 0.417 1.188 0.982 1.907 1.701v0zM21 22.125c0 0.203-0.172 0.375-0.375 0.375h-17.25c-0.203 0-0.375-0.172-0.375-0.375v-20.25c0-0.203 0.172-0.375 0.375-0.375 0 0 11.624-0 11.625 0v5.25c0 0.414 0.336 0.75 0.75 0.75h5.25v14.625z"></path>
<path d="M17.726 9.17c-0.174-0.143-0.402-0.2-0.623-0.155l-7.5 1.5c-0.351 0.070-0.603 0.378-0.603 0.735v5.552c-0.441-0.192-0.953-0.302-1.5-0.302-1.657 0-3 1.007-3 2.25s1.343 2.25 3 2.25 3-1.007 3-2.25v-5.385l6-1.2v3.137c-0.441-0.192-0.953-0.302-1.5-0.302-1.657 0-3 1.007-3 2.25s1.343 2.25 3 2.25 3-1.007 3-2.25v-7.5c0-0.225-0.101-0.438-0.274-0.58z"></path>
</symbol>
<symbol id="icon-upload" viewBox="0 0 22 24">
<title>upload</title>
<path d="M17.143 19.714c0-0.469-0.388-0.857-0.857-0.857s-0.857 0.388-0.857 0.857 0.388 0.857 0.857 0.857 0.857-0.388 0.857-0.857zM20.571 19.714c0-0.469-0.388-0.857-0.857-0.857s-0.857 0.388-0.857 0.857 0.388 0.857 0.857 0.857 0.857-0.388 0.857-0.857zM22.286 16.714v4.286c0 0.71-0.576 1.286-1.286 1.286h-19.714c-0.71 0-1.286-0.576-1.286-1.286v-4.286c0-0.71 0.576-1.286 1.286-1.286h5.719c0.362 0.991 1.313 1.714 2.424 1.714h3.429c1.112 0 2.063-0.723 2.424-1.714h5.719c0.71 0 1.286 0.576 1.286 1.286zM17.933 8.036c-0.134 0.321-0.442 0.536-0.79 0.536h-3.429v6c0 0.469-0.388 0.857-0.857 0.857h-3.429c-0.469 0-0.857-0.388-0.857-0.857v-6h-3.429c-0.348 0-0.656-0.214-0.79-0.536-0.134-0.308-0.067-0.683 0.188-0.924l6-6c0.161-0.174 0.388-0.254 0.603-0.254s0.442 0.080 0.603 0.254l6 6c0.254 0.241 0.321 0.616 0.188 0.924z"></path>
</symbol>
<symbol id="icon-download" viewBox="0 0 22 24">
<title>download</title>
<path d="M17.143 18c0-0.469-0.388-0.857-0.857-0.857s-0.857 0.388-0.857 0.857 0.388 0.857 0.857 0.857 0.857-0.388 0.857-0.857zM20.571 18c0-0.469-0.388-0.857-0.857-0.857s-0.857 0.388-0.857 0.857 0.388 0.857 0.857 0.857 0.857-0.388 0.857-0.857zM22.286 15v4.286c0 0.71-0.576 1.286-1.286 1.286h-19.714c-0.71 0-1.286-0.576-1.286-1.286v-4.286c0-0.71 0.576-1.286 1.286-1.286h6.228l1.808 1.821c0.496 0.482 1.138 0.75 1.821 0.75s1.326-0.268 1.821-0.75l1.821-1.821h6.214c0.71 0 1.286 0.576 1.286 1.286zM17.933 7.379c0.134 0.321 0.067 0.696-0.188 0.938l-6 6c-0.161 0.174-0.388 0.254-0.603 0.254s-0.442-0.080-0.603-0.254l-6-6c-0.254-0.241-0.321-0.616-0.188-0.938 0.134-0.308 0.442-0.522 0.79-0.522h3.429v-6c0-0.469 0.388-0.857 0.857-0.857h3.429c0.469 0 0.857 0.388 0.857 0.857v6h3.429c0.348 0 0.656 0.214 0.79 0.522z"></path>
</symbol>
</defs>
</svg>
